<svg xmlns="http://www.w3.org/2000/svg" viewBox="0 0 258.8 113.43"><defs><style>.cls-1{fill:#fff;}</style></defs><title>wpcomvip_logo_main-darkbg</title><g id="Layer_2" data-name="Layer 2"><g id="Layer_1-2" data-name="Layer 1"><path class="cls-1" d="M56.71,0a56.72,56.72,0,1,0,56.72,56.71A56.77,56.77,0,0,0,56.71,0Zm-51,56.71A50.78,50.78,0,0,1,10.14,36l24.32,66.65A51,51,0,0,1,5.72,56.71Zm51,51a50.74,50.74,0,0,1-14.4-2.08l15.3-44.46,15.67,43a5.16,5.16,0,0,0,.37.7A51.07,51.07,0,0,1,56.71,107.71Zm7-74.9c3.07-.16,5.84-.49,5.84-.49a2.11,2.11,0,0,0-.33-4.2s-8.26.65-13.59.65c-5,0-13.43-.65-13.43-.65-2.75-.16-3.07,4-.32,4.2,0,0,2.6.33,5.35.49L55.2,54.57,44,88,25.47,32.81c3.08-.16,5.84-.49,5.84-.49a2.11,2.11,0,0,0-.33-4.2s-8.26.65-13.59.65c-.95,0-2.08,0-3.28-.06a51,51,0,0,1,77-9.6c-.22,0-.44,0-.66,0-5,0-8.56,4.36-8.56,9.05,0,4.2,2.42,7.76,5,12,1.94,3.4,4.21,7.76,4.21,14.06q0,6.55-3.88,16.49l-5.09,17Zm18.61,68,15.58-45a48.12,48.12,0,0,0,3.87-18.27,39,39,0,0,0-.34-5.24,51,51,0,0,1-19.11,68.54Z"/><path class="cls-1" d="M164.72,30.48,153.26,64.29A59.33,59.33,0,0,0,150.71,76h-.29a60.06,60.06,0,0,0-2.55-11.69L136.41,30.48H121.09l21.73,57h15.49l21.72-57Z"/><polygon class="cls-1" points="187.68 30.48 183.35 41.85 183.35 87.5 198.67 87.5 198.67 30.48 187.68 30.48"/><path class="cls-1" d="M253.09,37.21q-5.72-7.8-15.82-7.81c-7.14,0-12,2.83-15.62,8.47h-.72l-2.19-7.39H206.33v83h15.32V89.49c0-.75-.28-3.5-.82-8.27h.82c3.8,4.87,8.52,7.3,15.22,7.3A19.53,19.53,0,0,0,248.5,85a22.27,22.27,0,0,0,7.62-10.25,42.74,42.74,0,0,0,2.68-15.87Q258.8,45,253.09,37.21ZM233,75.92c-3.94,0-6.83-1.33-8.64-4s-2.73-7-2.73-13.16V57.1q.09-8.16,2.75-11.71c1.77-2.36,4.57-3.54,8.42-3.54q5.51,0,8.08,4.21t2.58,12.62Q243.48,75.92,233,75.92Z"/></g></g></svg>